<?xml version="1.0"?>
<svg id="Capa_1" xmlns="http://www.w3.org/2000/svg"
x="0px" y="0px" viewBox="0 0 512 512"><path d="M488,432H472V321.866a24.058,24.058,0,0,0,6.969-10.9C505.005,302.5,499.708,264.662,472,264c-30.436,0-93.459,0-124.141,0A111.373,111.373,0,0,0,368,200h16a24.027,24.027,0,0,0,24-24c.246-13.025-11.21-24.381-24.25-24A128.426,128.426,0,0,0,288,36.055V24a8,8,0,0,0-8-8H232a8,8,0,0,0-8,8V36.055A128.426,128.426,0,0,0,128.25,152,24.034,24.034,0,0,0,104,176c-.277,12.881,11.1,24.28,24,24h16a111.373,111.373,0,0,0,20.141,64H144a8,8,0,0,0-5.657,2.343L88.971,315.716A39.872,39.872,0,0,0,80,329.409V24a8,8,0,0,0-8-8H24a8,8,0,0,0-8,8V488a8,8,0,0,0,8,8H72a8,8,0,0,0,8-8V358.591a39.871,39.871,0,0,0,8.97,13.692l9.369,9.369,0,0,43.029,43.029A25.047,25.047,0,0,0,168,430.339a16.376,16.376,0,0,0,8,15.5V448a24.027,24.027,0,0,0-24,24v16a8,8,0,0,0,8,8h80a8,8,0,0,0,8-8c0-11.529,0-53.225,0-64h20.9c-.474,1.9-5.175,14.287-4.9,16v48a8,8,0,0,0,8,8h80a8,8,0,0,0,8-8V472a24.027,24.027,0,0,0-24-24v-.773a15.915,15.915,0,0,0,9.356-7.987l13.91-27.409a8,8,0,0,0,.291-6.6L344,366.455V328h80V432H408a8,8,0,0,0-8,8v48a8,8,0,0,0,8,8h80a8,8,0,0,0,8-8V440A8,8,0,0,0,488,432ZM64,480H32V32H64ZM480,288a7.985,7.985,0,0,1-3.227,6.4A15.968,15.968,0,0,0,464,288h-8c-10.6.391-10.6,15.609,0,16l8-.01a8.009,8.009,0,0,1-8,8.01H424V280h48A8.009,8.009,0,0,1,480,288ZM264,360V344h32v16Zm-48,0V344h32v16Zm-32,0V285.717a112.549,112.549,0,0,0,16,11.248V360ZM320,200v71.488c-34.764,32.441-93.245,32.433-128,0V200ZM216,312h32v16H216Zm48,0h32v16H264Zm-96,52.686L147.314,344,168,323.314ZM312,336V296.965a112.549,112.549,0,0,0,16-11.248V360H312Zm24-83V200h16A95.442,95.442,0,0,1,336,253ZM128,184c-10.585-.343-10.593-15.628,0-16h56a8,8,0,0,0,0-16H144.312A112.4,112.4,0,0,1,224,52.637V88a8,8,0,0,0,16,0c0-7.682,0-49.3,0-56h32c0,6.448,0,48.55,0,56a8,8,0,0,0,16,0V52.637A112.4,112.4,0,0,1,367.688,152H328a8,8,0,0,0,0,16h56c10.574.335,10.6,15.627,0,16Zm48,16v53a95.442,95.442,0,0,1-16-53ZM100.284,327.03,147.314,280H168v20.687l-37.652,37.651-.005,0L104,364.686l-3.716-3.716C90.974,352.038,90.974,335.962,100.284,327.03Zm65.088,86.343a9.013,9.013,0,0,1-12.686,0L115.314,376,136,355.314l25.373,25.373a3.314,3.314,0,0,1,0,4.685,8.048,8.048,0,0,0,0,11.315l4,4A9.012,9.012,0,0,1,165.372,413.373ZM232,480H168v-8a8.009,8.009,0,0,1,8-8h8a8,8,0,0,0,8-8v-8h40Zm112-8v8H280V448h40v8a8,8,0,0,0,8,8h8A8.009,8.009,0,0,1,344,472Zm-12.912-40H283.1l4.489-13.47A8.054,8.054,0,0,0,280,408H240a8,8,0,0,0-8,8v16H184V376H330.59l12.767,31.824ZM344,280h64v32H344Zm96,48h16V432H440Zm40,152H416V448h64ZM208,224c.391-10.6,15.608-10.6,16,0a8,8,0,0,1-16,0Zm80,0c.391-10.6,15.608-10.6,16,0a8,8,0,0,1-16,0Zm-53.657,18.343A19.346,19.346,0,0,1,256,238.42a19.351,19.351,0,0,1,21.657,3.923,8,8,0,0,1-11.314,11.314,3.315,3.315,0,0,0-4.686,0,8,8,0,0,1-11.314,0,3.315,3.315,0,0,0-4.686,0C237.913,260.887,227.113,250.089,234.343,242.343ZM256,168a32.036,32.036,0,0,0,32-32c-1.758-42.452-62.249-42.44-64,0A32.036,32.036,0,0,0,256,168Zm0-48a16.019,16.019,0,0,1,16,16c-.879,21.226-31.124,21.22-32,0A16.019,16.019,0,0,1,256,120Z"/></svg>
